# Blender v3.2.2 OBJ File: ''
# www.blender.org
mtllib pillar.mtl
o Cube
v 1.000000 2.000000 -1.000000
v 1.000000 2.000000 1.000000
v -1.000000 2.000000 -1.000000
v -1.000000 2.000000 1.000000
v 0.600000 2.000000 1.000000
v 0.200000 2.000000 1.000000
v -0.200000 2.000000 1.000000
v -0.600000 2.000000 1.000000
v 1.000000 2.000000 -0.600000
v 1.000000 2.000000 -0.200000
v 1.000000 2.000000 0.200000
v 1.000000 2.000000 0.600000
v -1.000000 2.000000 0.600000
v -1.000000 2.000000 0.200000
v -1.000000 2.000000 -0.200000
v -1.000000 2.000000 -0.600000
v -0.600000 2.000000 -1.000000
v -0.200000 2.000000 -1.000000
v 0.200000 2.000000 -1.000000
v 0.600000 2.000000 -1.000000
v -0.600000 0.000000 1.000000
v 0.600000 2.000000 -0.200000
v 0.600000 2.000000 0.200000
v -1.000000 0.000000 1.000000
v 0.200000 2.000000 -0.600000
v 1.000000 0.000000 0.600000
v -1.000000 0.000000 -0.600000
v 0.200000 2.000000 0.600000
v -0.200000 2.000000 -0.600000
v -1.000000 0.000000 -1.000000
v 0.600000 0.000000 -1.000000
v -0.200000 2.000000 0.600000
v 1.000000 0.000000 1.000000
v -0.600000 2.000000 -0.200000
v -0.600000 2.000000 0.200000
v 1.000000 0.000000 -1.000000
v 0.600000 0.000000 1.000000
v 0.200000 0.000000 1.000000
v -0.200000 0.000000 1.000000
v 1.000000 0.000000 -0.600000
v 1.000000 0.000000 -0.200000
v 1.000000 0.000000 0.200000
v -1.000000 0.000000 0.600000
v -1.000000 0.000000 0.200000
v -1.000000 0.000000 -0.200000
v -0.600000 0.000000 -1.000000
v -0.200000 0.000000 -1.000000
v 0.200000 0.000000 -1.000000
v 0.600000 0.000000 -0.200000
v 0.600000 0.000000 0.200000
v 0.200000 0.000000 0.600000
v 0.200000 0.000000 -0.600000
v -0.200000 0.000000 0.600000
v -0.200000 0.000000 -0.600000
v -0.600000 0.000000 -0.200000
v -0.600000 0.000000 0.200000
vt 0.675000 0.500000
vt 0.625000 0.500000
vt 0.625000 0.500000
vt 0.875000 0.750000
vt 0.875000 0.700000
vt 0.875000 0.700000
vt 0.625000 0.600000
vt 0.675000 0.600000
vt 0.675000 0.600000
vt 0.775000 0.550000
vt 0.725000 0.550000
vt 0.725000 0.550000
vt 0.625000 0.550000
vt 0.625000 0.600000
vt 0.675000 0.500000
vt 0.625000 0.650000
vt 0.625000 0.700000
vt 0.625000 0.700000
vt 0.725000 0.500000
vt 0.725000 0.500000
vt 0.875000 0.650000
vt 0.875000 0.650000
vt 0.875000 0.500000
vt 0.825000 0.500000
vt 0.825000 0.500000
vt 0.825000 0.600000
vt 0.875000 0.600000
vt 0.875000 0.600000
vt 0.825000 0.750000
vt 0.875000 0.750000
vt 0.775000 0.500000
vt 0.775000 0.500000
vt 0.825000 0.650000
vt 0.825000 0.650000
vt 0.875000 0.550000
vt 0.875000 0.550000
vt 0.775000 0.550000
vt 0.625000 0.750000
vt 0.625000 0.750000
vt 0.775000 0.700000
vt 0.775000 0.750000
vt 0.775000 0.750000
vt 0.675000 0.650000
vt 0.625000 0.650000
vt 0.875000 0.500000
vt 0.725000 0.700000
vt 0.675000 0.750000
vt 0.675000 0.750000
vt 0.725000 0.750000
vt 0.725000 0.750000
vt 0.675000 0.650000
vt 0.825000 0.750000
vt 0.775000 0.700000
vt 0.625000 0.550000
vt 0.825000 0.600000
vt 0.725000 0.700000
vn 0.0000 0.0000 -1.0000
vn -1.0000 0.0000 0.0000
vn 0.0000 0.0000 1.0000
vn 1.0000 0.0000 0.0000
vn 0.0000 -1.0000 0.0000
vn 0.0000 1.0000 0.0000
usemtl Material
s off
f 20/1/1 1/2/1 36/3/1
f 4/4/2 13/5/2 43/6/2
f 10/7/3 22/8/3 49/9/3
f 29/10/1 25/11/1 52/12/1
f 9/13/4 10/7/4 41/14/4
f 49/9/5 52/12/5 31/15/5
f 11/16/4 12/17/4 26/18/4
f 25/11/2 19/19/2 48/20/2
f 13/5/2 14/21/2 44/22/2
f 3/23/1 17/24/1 46/25/1
f 34/26/3 15/27/3 45/28/3
f 8/29/3 4/4/3 24/30/3
f 17/24/1 18/31/1 47/32/1
f 14/21/1 35/33/1 56/34/1
f 15/27/2 16/35/2 27/36/2
f 18/31/4 29/10/4 54/37/4
f 12/17/4 2/38/4 33/39/4
f 19/19/1 20/1/1 31/15/1
f 32/40/4 7/41/4 39/42/4
f 23/43/1 11/16/1 42/44/1
f 16/35/2 3/23/2 30/45/2
f 25/11/6 28/46/6 23/43/6
f 2/38/3 5/47/3 37/48/3
f 6/49/3 38/50/3 37/48/3
f 22/8/4 23/43/4 50/51/4
f 7/41/3 8/29/3 21/52/3
f 28/46/3 32/40/3 53/53/3
f 1/2/4 9/13/4 40/54/4
f 35/33/2 34/26/2 55/55/2
f 6/49/2 28/46/2 51/56/2
f 20/1/1 36/3/1 31/15/1
f 4/4/2 43/6/2 24/30/2
f 10/7/3 49/9/3 41/14/3
f 29/10/1 52/12/1 54/37/1
f 9/13/4 41/14/4 40/54/4
f 44/22/5 56/34/5 43/6/5
f 43/6/5 21/52/5 24/30/5
f 21/52/5 53/53/5 39/42/5
f 43/6/5 56/34/5 21/52/5
f 56/34/5 53/53/5 21/52/5
f 27/36/5 55/55/5 45/28/5
f 55/55/5 53/53/5 56/34/5
f 51/56/5 37/48/5 38/50/5
f 55/55/5 51/56/5 53/53/5
f 30/45/5 46/25/5 27/36/5
f 27/36/5 46/25/5 55/55/5
f 54/37/5 46/25/5 47/32/5
f 51/56/5 26/18/5 37/48/5
f 37/48/5 26/18/5 33/39/5
f 46/25/5 54/37/5 55/55/5
f 55/55/5 54/37/5 51/56/5
f 26/18/5 50/51/5 42/44/5
f 49/9/5 40/54/5 41/14/5
f 51/56/5 50/51/5 26/18/5
f 49/9/5 31/15/5 40/54/5
f 40/54/5 31/15/5 36/3/5
f 51/56/5 49/9/5 50/51/5
f 52/12/5 51/56/5 54/37/5
f 31/15/5 52/12/5 48/20/5
f 52/12/5 49/9/5 51/56/5
f 11/16/4 26/18/4 42/44/4
f 25/11/2 48/20/2 52/12/2
f 13/5/2 44/22/2 43/6/2
f 3/23/1 46/25/1 30/45/1
f 34/26/3 45/28/3 55/55/3
f 8/29/3 24/30/3 21/52/3
f 17/24/1 47/32/1 46/25/1
f 14/21/1 56/34/1 44/22/1
f 15/27/2 27/36/2 45/28/2
f 18/31/4 54/37/4 47/32/4
f 12/17/4 33/39/4 26/18/4
f 19/19/1 31/15/1 48/20/1
f 32/40/4 39/42/4 53/53/4
f 23/43/1 42/44/1 50/51/1
f 16/35/2 30/45/2 27/36/2
f 4/4/6 8/29/6 13/5/6
f 13/5/6 35/33/6 14/21/6
f 13/5/6 8/29/6 35/33/6
f 32/40/6 8/29/6 7/41/6
f 34/26/6 16/35/6 15/27/6
f 32/40/6 35/33/6 8/29/6
f 34/26/6 17/24/6 16/35/6
f 16/35/6 17/24/6 3/23/6
f 32/40/6 34/26/6 35/33/6
f 5/47/6 28/46/6 6/49/6
f 28/46/6 34/26/6 32/40/6
f 17/24/6 29/10/6 18/31/6
f 25/11/6 20/1/6 19/19/6
f 34/26/6 29/10/6 17/24/6
f 25/11/6 9/13/6 20/1/6
f 20/1/6 9/13/6 1/2/6
f 34/26/6 25/11/6 29/10/6
f 2/38/6 12/17/6 5/47/6
f 5/47/6 12/17/6 28/46/6
f 28/46/6 25/11/6 34/26/6
f 9/13/6 22/8/6 10/7/6
f 23/43/6 12/17/6 11/16/6
f 25/11/6 22/8/6 9/13/6
f 23/43/6 28/46/6 12/17/6
f 25/11/6 23/43/6 22/8/6
f 2/38/3 37/48/3 33/39/3
f 6/49/3 37/48/3 5/47/3
f 22/8/4 50/51/4 49/9/4
f 7/41/3 21/52/3 39/42/3
f 28/46/3 53/53/3 51/56/3
f 1/2/4 40/54/4 36/3/4
f 35/33/2 55/55/2 56/34/2
f 6/49/2 51/56/2 38/50/2
