# Blender 3.2.2
# www.blender.org
mtllib wall.mtl
o Cube
v 0.110413 1.815888 -0.815888
v 0.110413 0.184112 -0.815888
v 0.110413 1.815888 0.815888
v 0.110413 0.184112 0.815888
v -0.110413 1.820210 -0.820211
v -0.110413 0.179789 -0.820211
v -0.110413 1.820210 0.820211
v -0.110413 0.179789 0.820211
v 0.110413 2.000000 -1.000000
v 0.110413 0.000000 -1.000000
v 0.110413 2.000000 1.000000
v 0.110413 0.000000 1.000000
v 0.040194 1.815888 -0.815888
v 0.040194 0.184112 -0.815888
v 0.040194 1.815888 0.815888
v 0.040194 0.184112 0.815888
v -0.110413 0.000000 -1.000000
v -0.110413 0.000000 1.000000
v -0.110413 2.000000 1.000000
v -0.110413 2.000000 -1.000000
v -0.022555 0.179789 -0.820211
v -0.022555 0.179789 0.820211
v -0.022555 1.820210 0.820211
v -0.022555 1.820210 -0.820211
vn -0.0000 1.0000 -0.0000
vn -0.0000 -0.0000 1.0000
vn -0.0000 -1.0000 -0.0000
vn -0.0000 -0.0000 -1.0000
vn 1.0000 -0.0000 -0.0000
vn -1.0000 -0.0000 -0.0000
vt 0.601986 0.523014
vt 0.398014 0.523014
vt 0.601986 0.726986
vt 0.398014 0.726986
vt 0.605308 0.230308
vt 0.394692 0.230308
vt 0.605308 0.019692
vt 0.394692 0.019692
vt 0.625000 0.500000
vt 0.375000 0.500000
vt 0.625000 0.750000
vt 0.375000 0.750000
vt 0.601986 0.523014
vt 0.398014 0.523014
vt 0.601986 0.726986
vt 0.398014 0.726986
vt 0.125000 0.500000
vt 0.375000 0.250000
vt 0.375000 1.000000
vt 0.125000 0.750000
vt 0.375000 0.000000
vt 0.875000 0.750000
vt 0.625000 1.000000
vt 0.625000 0.000000
vt 0.875000 0.500000
vt 0.625000 0.250000
vt 0.394692 0.230308
vt 0.394692 0.019692
vt 0.605308 0.019692
vt 0.605308 0.230308
s 0
usemtl Material
f 20/25/1 11/11/1 9/9/1
f 11/11/2 18/19/2 12/12/2
f 8/8/1 21/27/1 6/6/1
f 10/10/3 18/20/3 17/17/3
f 3/3/3 13/13/3 1/1/3
f 20/26/4 10/10/4 17/18/4
f 2/2/5 9/9/5 1/1/5
f 3/3/5 12/12/5 4/4/5
f 1/1/5 11/11/5 3/3/5
f 4/4/5 10/10/5 2/2/5
f 13/13/5 16/16/5 14/14/5
f 1/1/2 14/14/2 2/2/2
f 2/2/1 16/16/1 4/4/1
f 4/4/4 15/15/4 3/3/4
f 6/6/6 18/21/6 8/8/6
f 8/8/6 19/24/6 7/7/6
f 5/5/6 17/18/6 6/6/6
f 7/7/6 20/26/6 5/5/6
f 23/29/6 21/27/6 22/28/6
f 5/5/3 23/29/3 7/7/3
f 7/7/4 22/28/4 8/8/4
f 6/6/2 24/30/2 5/5/2
f 20/25/1 19/22/1 11/11/1
f 11/11/2 19/23/2 18/19/2
f 8/8/1 22/28/1 21/27/1
f 10/10/3 12/12/3 18/20/3
f 3/3/3 15/15/3 13/13/3
f 20/26/4 9/9/4 10/10/4
f 2/2/5 10/10/5 9/9/5
f 3/3/5 11/11/5 12/12/5
f 1/1/5 9/9/5 11/11/5
f 4/4/5 12/12/5 10/10/5
f 13/13/5 15/15/5 16/16/5
f 1/1/2 13/13/2 14/14/2
f 2/2/1 14/14/1 16/16/1
f 4/4/4 16/16/4 15/15/4
f 6/6/6 17/18/6 18/21/6
f 8/8/6 18/21/6 19/24/6
f 5/5/6 20/26/6 17/18/6
f 7/7/6 19/24/6 20/26/6
f 23/29/6 24/30/6 21/27/6
f 5/5/3 24/30/3 23/29/3
f 7/7/4 23/29/4 22/28/4
f 6/6/2 21/27/2 24/30/2
