# Blender 3.3.1
# www.blender.org
mtllib lowtree.mtl
o Cylinder.001
v 0.954048 0.093304 0.429284
v 0.954048 0.751014 0.429284
v 0.700480 0.093304 0.633964
v 0.700480 0.751014 0.633964
v 0.427461 0.093304 0.456057
v 0.427461 0.751014 0.456057
v 0.512293 0.093304 0.141423
v 0.512293 0.751014 0.141423
v 0.837742 0.093304 0.124877
v 0.837742 0.751014 0.124877
v 0.737353 0.521784 1.358306
v 1.654363 0.589024 0.618093
v -0.250004 0.589024 0.714915
v 0.056788 0.589024 -0.422935
v 1.233751 0.521784 -0.482774
v 0.967418 3.553290 0.489925
v 1.103400 3.520979 0.377104
v 0.821004 3.588078 0.391861
v 0.866498 3.577269 0.218433
v 1.041028 3.535799 0.209313
v 0.751980 1.228869 1.000481
v 0.734878 1.836773 0.866911
v 0.766918 2.442703 0.733340
v 0.827638 3.048473 0.599770
v 0.594823 3.103792 0.443837
v 0.397855 2.480789 0.491571
v 0.232960 1.865651 0.539305
v 0.117529 1.234363 0.587039
v 1.070953 1.226107 -0.182595
v 0.987220 1.822255 -0.070542
v 0.952466 2.423555 0.041510
v 0.944688 3.020661 0.153563
v 1.043867 2.997096 0.420371
v 1.109687 2.407331 0.455188
v 1.201037 1.809952 0.490004
v 1.341228 1.223767 0.524821
v 0.667163 3.086603 0.168065
v 0.512531 2.468955 0.063996
v 0.388916 1.856678 -0.040073
v 0.314666 1.232656 -0.144142
v 0.810881 2.949514 0.721634
v 0.986998 2.907668 0.050250
v 0.448866 3.049484 0.453817
v 1.151897 2.938155 0.451702
v 0.585092 3.072832 0.072071
v 0.765781 2.336845 0.910754
v 0.229852 2.462396 0.554973
v 1.038829 2.308668 -0.107322
v 1.277362 2.354296 0.501433
v 0.398605 2.444982 -0.074232
v 0.739382 1.738120 1.066754
v 0.044698 1.847697 0.610723
v 1.090645 1.717910 -0.238191
v 1.392271 1.770164 0.542096
v 0.260515 1.813034 -0.195777
v 0.764387 1.117801 1.263039
v -0.128910 1.134185 0.680870
v 1.213604 1.121857 -0.402855
v 1.594786 1.188691 0.593261
v 0.149280 1.201207 -0.348710
v 0.912607 0.402484 0.418110
v 0.698301 0.402484 0.591099
v 0.467555 0.402484 0.440738
v 0.539252 0.402484 0.174821
v 0.814310 0.402484 0.160837
v 1.174121 3.977143 0.425794
v 1.221335 3.965925 0.386622
v 1.123286 3.989222 0.391746
v 1.139081 3.985469 0.331531
v 1.199679 3.971070 0.328365
v 0.770859 2.697725 0.770210
v 0.973519 2.668104 0.010581
v 0.373084 2.793077 0.504747
v 1.150565 2.679441 0.464798
v 0.498335 2.774771 0.035270
v 0.239350 2.487462 0.551588
v 1.268710 2.379379 0.498964
v 0.405179 2.470050 -0.066853
v 0.765993 2.363966 0.901282
v 1.034310 2.335793 -0.099376
v 0.767323 2.367304 0.928190
v 1.048891 2.337611 -0.121949
v 0.214669 2.496932 0.561204
v 1.294868 2.383017 0.505978
v 0.388688 2.478580 -0.087818
v 0.814689 2.964329 0.715170
v 0.987923 2.923168 0.054781
v 0.458723 3.062491 0.452078
v 1.149961 2.952481 0.449658
v 0.592438 3.084952 0.076245
v 0.817299 2.969367 0.744706
v 1.004592 2.924864 0.030719
v 0.432481 3.075438 0.460373
v 1.179728 2.956335 0.457645
v 0.576956 3.099557 0.053925
v 0.739958 1.754078 1.058275
v 1.087009 1.733919 -0.231078
v 0.053557 1.861895 0.607693
v 1.384971 1.784558 0.539886
v 0.266801 1.827793 -0.189171
v 0.742106 1.755499 1.098444
v 1.109037 1.734146 -0.264776
v 0.016378 1.869400 0.622048
v 1.424056 1.787481 0.550357
v 0.241840 1.833375 -0.220468
v 0.763089 1.147087 1.245013
v 1.203348 1.150376 -0.387732
v -0.112401 1.163947 0.674428
v 1.576917 1.213842 0.588562
v 0.160228 1.227730 -0.334664
v 0.764910 1.159634 1.283728
v 1.224360 1.162842 -0.420211
v -0.148745 1.177492 0.688263
v 1.614209 1.228408 0.598653
v 0.135765 1.243432 -0.364829
v -0.236724 0.607583 0.710207
v 1.642581 0.607275 0.614659
v 0.066030 0.607533 -0.412670
v 0.737638 0.542324 1.345130
v 1.227504 0.542244 -0.471721
v 0.742577 0.552436 1.434378
v 1.276692 0.552318 -0.546591
v -0.319800 0.623176 0.742101
v 1.729263 0.622724 0.637922
v 0.010302 0.623103 -0.482205
v 1.290716 4.160451 0.423774
v 0.900845 -0.135271 0.414939
v 0.954048 -0.090692 0.429284
v 0.700480 -0.090692 0.633964
v 0.697682 -0.135271 0.578932
v 0.427461 -0.090692 0.456057
v 0.478935 -0.135271 0.436390
v 0.512293 -0.090692 0.141423
v 0.546904 -0.135271 0.184301
v 0.837742 -0.090692 0.124877
v 0.807658 -0.135271 0.171043
vn 0.6250 -0.0991 0.7743
vn -0.5433 -0.0991 0.8337
vn -0.9608 -0.0991 -0.2590
vn 0.1453 -0.9639 -0.2230
vn -0.0505 -0.0991 -0.9938
vn 0.9295 -0.0991 -0.3552
vn -0.5459 -0.0000 0.8378
vn -0.4499 0.4445 0.7746
vn -0.2486 -0.9639 0.0950
vn -0.1649 -0.9427 -0.2899
vn 0.2570 -0.9639 0.0693
vn -0.0370 -0.9427 0.3315
vn -0.7754 0.5842 -0.2398
vn 0.9367 0.0779 -0.3413
vn -0.7904 0.5626 -0.2424
vn 0.6150 0.1772 0.7684
vn 0.0610 0.2767 -0.9590
vn -0.0409 0.4652 -0.8843
vn -0.0106 0.4655 -0.8850
vn -0.0002 0.4060 -0.9139
vn 0.0368 0.3782 -0.9250
vn 0.5419 0.4484 0.7108
vn 0.5781 0.4462 0.6832
vn 0.5717 0.3687 0.7329
vn 0.6123 0.2632 0.7455
vn -0.8177 0.5313 -0.2217
vn -0.8480 0.4748 -0.2356
vn -0.8469 0.4711 -0.2468
vn -0.8086 0.5386 -0.2367
vn 0.8236 0.4728 -0.3131
vn 0.7961 0.5027 -0.3370
vn 0.8654 0.3908 -0.3136
vn 0.9119 0.2621 -0.3158
vn -0.4467 0.5067 0.7373
vn -0.4760 0.4301 0.7671
vn -0.4568 0.4489 0.7680
vn -0.4192 0.4533 0.7866
vn -0.1281 -0.6949 0.7076
vn -0.5972 -0.5805 -0.5535
vn 0.1665 -0.9860 -0.0009
vn -0.5207 -0.8081 0.2753
vn 0.2402 -0.7572 -0.6074
vn -0.0143 -0.9495 -0.3135
vn -0.3460 -0.9158 0.2042
vn 0.1320 -0.9893 0.0628
vn -0.4516 -0.7649 -0.4593
vn -0.0529 -0.8051 0.5908
vn 0.0026 -0.9714 -0.2374
vn -0.2421 -0.9573 0.1577
vn 0.2346 -0.9689 0.0782
vn -0.3744 -0.8348 -0.4037
vn -0.0228 -0.8550 0.5181
vn 0.2251 -0.9010 -0.3708
vn -0.1704 -0.9767 0.1307
vn 0.1988 -0.9800 -0.0101
vn -0.2982 -0.8841 -0.3599
vn 0.0143 -0.9002 0.4353
vn 0.9283 0.1116 -0.3547
vn -0.0505 0.1116 -0.9925
vn -0.9595 0.1116 -0.2587
vn -0.5425 0.1116 0.8326
vn 0.6242 0.1116 0.7733
vn 0.2312 0.9729 -0.0000
vn 0.6033 -0.1765 0.7777
vn 0.0113 0.2600 -0.9656
vn -0.4628 0.3490 0.8148
vn 0.9048 -0.2322 -0.3569
vn -0.4441 0.3912 0.8060
vn 0.8618 0.3716 -0.3452
vn -0.8714 0.4247 -0.2456
vn 0.5799 0.3464 0.7374
vn 0.0330 0.3785 -0.9250
vn 0.0106 0.2827 -0.9591
vn 0.5978 0.2601 0.7583
vn -0.9146 0.3146 -0.2540
vn 0.8895 0.2706 -0.3682
vn -0.4801 0.2935 0.8267
vn -0.2144 -0.9527 -0.2153
vn 0.1232 -0.9856 0.1162
vn -0.3802 -0.9218 -0.0760
vn 0.1325 -0.9910 0.0197
vn -0.3093 -0.9416 0.1333
vn 0.0616 0.2767 -0.9590
vn 0.6144 0.1775 0.7688
vn -0.7887 0.5631 -0.2469
vn 0.9210 0.0699 -0.3831
vn -0.3735 -0.8706 -0.3201
vn 0.0916 -0.9829 0.1595
vn -0.4811 -0.8483 -0.2214
vn 0.1223 -0.9922 0.0230
vn -0.3867 -0.9032 0.1864
vn -0.4425 0.4425 0.7800
vn 0.8546 0.3789 -0.3552
vn -0.8468 0.4711 -0.2469
vn 0.5711 0.3690 0.7333
vn -0.1820 -0.9824 0.0423
vn 0.0637 -0.9971 0.0406
vn -0.2033 -0.9790 -0.0125
vn 0.0723 -0.9969 0.0314
vn -0.1175 -0.9896 -0.0835
vn -0.4861 0.4338 0.7586
vn 0.7960 0.5026 -0.3373
vn -0.8622 0.4638 -0.2036
vn 0.5331 0.4605 0.7097
vn -0.0103 0.4656 -0.8850
vn -0.2236 -0.9222 0.3154
vn 0.3828 -0.9197 -0.0873
vn -0.3849 -0.9088 -0.1609
vn 0.3015 -0.9111 0.2811
vn -0.0881 -0.9096 -0.4061
vn -0.4466 0.5067 0.7374
vn 0.8179 0.4640 -0.3403
vn -0.8182 0.5309 -0.2206
vn 0.5412 0.4487 0.7112
vn -0.0184 0.4709 -0.8820
vn -0.1404 -0.9834 0.1150
vn 0.1779 -0.9840 -0.0095
vn -0.2044 -0.9773 -0.0550
vn 0.1536 -0.9828 0.1028
vn -0.0641 -0.9826 -0.1743
vn 0.8994 -0.2527 -0.3567
vn 0.5506 -0.3418 0.7616
vn -0.4764 0.3121 0.8220
vn 0.0546 0.4282 -0.9020
vn -0.6763 0.7027 -0.2212
vn 0.9341 -0.0000 -0.3569
vn -0.0508 -0.0000 -0.9987
vn -0.9655 -0.0000 -0.2603
vn 0.6281 -0.0000 0.7781
vn 0.4441 -0.7071 0.5502
vn -0.3860 -0.7071 0.5924
vn -0.6827 -0.7071 -0.1841
vn -0.0359 -0.7071 -0.7062
vn 0.6605 -0.7071 -0.2524
vn -0.0000 -1.0000 -0.0000
vn 0.1347 -0.9427 -0.3052
vn -0.4200 0.4515 0.7873
vn -0.2883 -0.9427 0.1677
vn -0.1671 -0.9639 -0.2071
vn 0.0135 -0.9639 0.2658
vn 0.9222 0.0568 -0.3825
vn -0.7879 0.5642 -0.2466
vn 0.6533 0.1927 0.7322
vn 0.0245 0.3122 -0.9497
vn -0.0168 0.4913 -0.8708
vn -0.0176 0.4736 -0.8806
vn -0.0043 0.4100 -0.9121
vn 0.0402 0.3730 -0.9270
vn 0.5521 0.4842 0.6788
vn 0.5194 0.4987 0.6940
vn 0.5999 0.4098 0.6872
vn 0.6492 0.3149 0.6923
vn -0.8188 0.5299 -0.2208
vn -0.8737 0.4395 -0.2085
vn -0.8458 0.4765 -0.2400
vn -0.8111 0.5307 -0.2459
vn 0.8303 0.4390 -0.3433
vn 0.8319 0.4621 -0.3072
vn 0.8640 0.3549 -0.3571
vn 0.9071 0.2198 -0.3590
vn -0.4762 0.4794 0.7371
vn -0.4833 0.4433 0.7549
vn -0.4464 0.4324 0.7834
vn -0.4182 0.4509 0.7886
vn -0.3289 -0.8537 0.4037
vn -0.3461 -0.8479 -0.4016
vn 0.3538 -0.9232 0.1503
vn -0.8071 -0.5335 0.2529
vn 0.2166 -0.7722 -0.5973
vn 0.2391 -0.8345 -0.4964
vn -0.6308 -0.7468 0.2105
vn -0.2105 -0.9295 -0.3027
vn -0.1824 -0.9324 0.3120
vn 0.2336 -0.8698 -0.4346
vn -0.5329 -0.8257 0.1851
vn 0.1230 -0.9895 0.0754
vn -0.1377 -0.9633 -0.2302
vn -0.0902 -0.9372 0.3370
vn 0.2448 -0.8887 -0.3875
vn -0.4149 -0.8965 0.1556
vn 0.4107 -0.9047 0.1129
vn -0.0803 -0.9759 -0.2028
vn -0.0627 -0.9776 0.2009
vn -0.4440 0.3904 0.8065
vn 0.8658 0.3434 -0.3640
vn -0.8729 0.4194 -0.2492
vn 0.5895 0.3856 0.7098
vn 0.0354 0.3723 -0.9274
vn 0.0101 0.2800 -0.9600
vn 0.5947 0.2793 0.7538
vn -0.9153 0.3125 -0.2542
vn 0.8931 0.2570 -0.3692
vn -0.4804 0.2925 0.8268
vn -0.2146 -0.9519 -0.2186
vn 0.1104 -0.9887 0.1011
vn -0.3831 -0.9205 -0.0767
vn 0.1462 -0.9891 0.0148
vn -0.3086 -0.9420 0.1321
vn 0.0663 0.2887 -0.9551
vn 0.6134 0.1922 0.7660
vn -0.7879 0.5642 -0.2467
vn 0.9220 0.0570 -0.3830
vn -0.4466 0.4518 0.7723
vn -0.3737 -0.8734 -0.3123
vn 0.0862 -0.9844 0.1536
vn -0.4872 -0.8441 -0.2238
vn 0.1301 -0.9913 0.0202
vn -0.3879 -0.9023 0.1881
vn -0.4462 0.4324 0.7836
vn 0.8637 0.3551 -0.3577
vn -0.8450 0.4746 -0.2464
vn 0.5635 0.3970 0.7245
vn 0.0001 0.4085 -0.9128
vn -0.1835 -0.9820 0.0446
vn 0.0694 -0.9968 0.0387
vn -0.2024 -0.9792 -0.0123
vn 0.0676 -0.9974 0.0260
vn -0.1175 -0.9896 -0.0828
vn -0.4837 0.4431 0.7547
vn 0.8116 0.4734 -0.3423
vn -0.8738 0.4398 -0.2075
vn 0.5191 0.4985 0.6943
vn -0.0099 0.4712 -0.8820
vn -0.2199 -0.9249 0.3101
vn 0.3979 -0.9127 -0.0929
vn -0.3989 -0.9021 -0.1648
vn 0.2879 -0.9204 0.2645
vn -0.0879 -0.9110 -0.4029
vn -0.4538 0.4856 0.7472
vn 0.8299 0.4392 -0.3439
vn 0.5318 0.4752 0.7010
vn -0.0162 0.4911 -0.8709
vn -0.1435 -0.9824 0.1192
vn 0.1839 -0.9829 -0.0114
vn -0.2046 -0.9773 -0.0551
vn 0.1491 -0.9840 0.0979
vn -0.0636 -0.9835 -0.1693
s 0
usemtl Material.007
f 2//1 62//1 61//1
f 4//2 63//2 62//2
f 6//3 64//3 63//3
f 64//5 10//5 65//5
f 65//6 2//6 61//6
f 5//7 129//7 3//7
f 65//58 1//58 9//58
f 7//59 65//59 9//59
f 63//60 7//60 5//60
f 62//61 5//61 3//61
f 1//62 62//62 3//62
f 1//126 135//126 9//126
f 9//127 133//127 7//127
f 7//128 131//128 5//128
f 3//129 128//129 1//129
f 128//130 130//130 127//130
f 131//131 130//131 129//131
f 133//132 132//132 131//132
f 133//133 136//133 134//133
f 128//134 136//134 135//134
f 130//135 134//135 136//135
f 2//1 4//1 62//1
f 4//2 6//2 63//2
f 6//3 8//3 64//3
f 64//5 8//5 10//5
f 65//6 10//6 2//6
f 5//7 131//7 129//7
f 65//58 61//58 1//58
f 7//59 64//59 65//59
f 63//60 64//60 7//60
f 62//61 63//61 5//61
f 1//62 61//62 62//62
f 1//126 128//126 135//126
f 9//127 135//127 133//127
f 7//128 133//128 131//128
f 3//129 129//129 128//129
f 128//130 129//130 130//130
f 131//131 132//131 130//131
f 133//132 134//132 132//132
f 133//133 135//133 136//133
f 128//134 127//134 136//134
f 136//135 127//135 130//135
f 130//135 132//135 134//135
usemtl Material.008
f 4//4 13//4 6//4
f 91//8 18//8 93//8
f 10//9 12//9 2//9
f 4//10 12//10 11//10
f 8//11 13//11 14//11
f 10//12 14//12 15//12
f 18//13 69//13 19//13
f 94//14 20//14 17//14
f 95//15 18//15 19//15
f 94//16 16//16 91//16
f 95//17 20//17 92//17
f 122//18 40//18 29//18
f 115//19 30//19 112//19
f 105//20 31//20 102//20
f 75//21 32//21 72//21
f 124//22 21//22 121//22
f 111//23 35//23 22//23
f 104//24 23//24 101//24
f 74//25 24//25 71//25
f 125//26 28//26 40//26
f 115//27 27//27 39//27
f 103//28 38//28 105//28
f 73//29 37//29 75//29
f 124//30 29//30 36//30
f 112//31 35//31 114//31
f 104//32 31//32 34//32
f 74//33 32//33 33//33
f 121//34 28//34 123//34
f 113//35 22//35 27//35
f 103//36 23//36 26//36
f 73//37 24//37 25//37
f 37//38 42//38 32//38
f 33//39 41//39 24//39
f 37//40 43//40 45//40
f 33//41 42//41 44//41
f 25//42 41//42 43//42
f 26//43 46//43 47//43
f 34//44 48//44 49//44
f 38//45 47//45 50//45
f 34//46 46//46 23//46
f 38//47 48//47 31//47
f 27//48 51//48 52//48
f 35//49 53//49 54//49
f 27//50 55//50 39//50
f 35//51 51//51 22//51
f 39//52 53//52 30//52
f 28//53 56//53 57//53
f 36//54 58//54 59//54
f 40//55 57//55 60//55
f 36//56 56//56 21//56
f 40//57 58//57 29//57
f 67//63 69//63 68//63
f 17//64 66//64 16//64
f 20//65 69//65 70//65
f 16//66 68//66 18//66
f 17//67 70//67 67//67
f 83//68 71//68 73//68
f 84//69 72//69 74//69
f 83//70 75//70 85//70
f 84//71 71//71 81//71
f 85//72 72//72 82//72
f 50//73 80//73 48//73
f 49//74 79//74 46//74
f 47//75 78//75 50//75
f 49//76 80//76 77//76
f 47//77 79//77 76//77
f 78//78 82//78 80//78
f 77//79 81//79 79//79
f 76//80 85//80 78//80
f 77//81 82//81 84//81
f 76//82 81//82 83//82
f 45//83 87//83 42//83
f 44//84 86//84 41//84
f 45//85 88//85 90//85
f 44//86 87//86 89//86
f 43//8 86//8 88//8
f 90//87 92//87 87//87
f 89//88 91//88 86//88
f 90//89 93//89 95//89
f 89//90 92//90 94//90
f 88//91 91//91 93//91
f 52//92 96//92 98//92
f 54//93 97//93 99//93
f 52//94 100//94 55//94
f 54//95 96//95 51//95
f 55//20 97//20 53//20
f 98//96 101//96 103//96
f 99//97 102//97 104//97
f 98//98 105//98 100//98
f 99//99 101//99 96//99
f 100//100 102//100 97//100
f 57//101 106//101 108//101
f 59//102 107//102 109//102
f 60//103 108//103 110//103
f 59//104 106//104 56//104
f 60//105 107//105 58//105
f 108//106 111//106 113//106
f 109//107 112//107 114//107
f 110//108 113//108 115//108
f 109//109 111//109 106//109
f 110//110 112//110 107//110
f 13//111 119//111 116//111
f 12//112 120//112 117//112
f 14//113 116//113 118//113
f 12//114 119//114 11//114
f 15//115 118//115 120//115
f 116//116 121//116 123//116
f 117//117 122//117 124//117
f 118//118 123//118 125//118
f 117//119 121//119 119//119
f 118//120 122//120 120//120
f 67//121 70//121 126//121
f 66//122 67//122 126//122
f 68//123 66//123 126//123
f 70//124 69//124 126//124
f 126//125 69//125 68//125
f 4//136 11//136 13//136
f 91//137 16//137 18//137
f 10//138 15//138 12//138
f 4//139 2//139 12//139
f 8//11 6//11 13//11
f 10//140 8//140 14//140
f 18//13 68//13 69//13
f 94//141 92//141 20//141
f 95//142 93//142 18//142
f 94//143 17//143 16//143
f 95//144 19//144 20//144
f 122//145 125//145 40//145
f 115//146 39//146 30//146
f 105//147 38//147 31//147
f 75//148 37//148 32//148
f 124//149 36//149 21//149
f 111//150 114//150 35//150
f 104//151 34//151 23//151
f 74//152 33//152 24//152
f 125//153 123//153 28//153
f 115//154 113//154 27//154
f 103//155 26//155 38//155
f 73//156 25//156 37//156
f 124//157 122//157 29//157
f 112//158 30//158 35//158
f 104//159 102//159 31//159
f 74//160 72//160 32//160
f 121//161 21//161 28//161
f 113//162 111//162 22//162
f 103//163 101//163 23//163
f 73//164 71//164 24//164
f 37//165 45//165 42//165
f 33//166 44//166 41//166
f 37//167 25//167 43//167
f 33//168 32//168 42//168
f 25//169 24//169 41//169
f 26//170 23//170 46//170
f 34//171 31//171 48//171
f 38//45 26//45 47//45
f 34//172 49//172 46//172
f 38//173 50//173 48//173
f 27//174 22//174 51//174
f 35//175 30//175 53//175
f 27//176 52//176 55//176
f 35//177 54//177 51//177
f 39//178 55//178 53//178
f 28//179 21//179 56//179
f 36//180 29//180 58//180
f 40//181 28//181 57//181
f 36//182 59//182 56//182
f 40//183 60//183 58//183
f 68//63 66//63 67//63
f 67//63 70//63 69//63
f 17//64 67//64 66//64
f 20//65 19//65 69//65
f 16//66 66//66 68//66
f 17//67 20//67 70//67
f 83//184 81//184 71//184
f 84//185 82//185 72//185
f 83//186 73//186 75//186
f 84//187 74//187 71//187
f 85//188 75//188 72//188
f 50//189 78//189 80//189
f 49//190 77//190 79//190
f 47//191 76//191 78//191
f 49//192 48//192 80//192
f 47//193 46//193 79//193
f 78//194 85//194 82//194
f 77//195 84//195 81//195
f 76//196 83//196 85//196
f 77//197 80//197 82//197
f 76//198 79//198 81//198
f 45//199 90//199 87//199
f 44//200 89//200 86//200
f 45//201 43//201 88//201
f 44//202 42//202 87//202
f 43//203 41//203 86//203
f 90//204 95//204 92//204
f 89//205 94//205 91//205
f 90//206 88//206 93//206
f 89//207 87//207 92//207
f 88//208 86//208 91//208
f 52//209 51//209 96//209
f 54//210 53//210 97//210
f 52//211 98//211 100//211
f 54//212 99//212 96//212
f 55//213 100//213 97//213
f 98//214 96//214 101//214
f 99//215 97//215 102//215
f 98//216 103//216 105//216
f 99//217 104//217 101//217
f 100//218 105//218 102//218
f 57//219 56//219 106//219
f 59//220 58//220 107//220
f 60//221 57//221 108//221
f 59//222 109//222 106//222
f 60//223 110//223 107//223
f 108//224 106//224 111//224
f 109//225 107//225 112//225
f 110//226 108//226 113//226
f 109//227 114//227 111//227
f 110//228 115//228 112//228
f 13//229 11//229 119//229
f 12//230 15//230 120//230
f 14//153 13//153 116//153
f 12//231 117//231 119//231
f 15//232 14//232 118//232
f 116//233 119//233 121//233
f 117//234 120//234 122//234
f 118//235 116//235 123//235
f 117//236 124//236 121//236
f 118//237 125//237 122//237
